# xmcd CD database file
#
# Track frame offsets:
#	150
#	11039
#	38422
#	66917
#	80251
#	94268
#	108183
#	129929
#	147563
#	161714
#	174897
#
# Disc length: 2507 seconds
#
# Revision: 0
# Processed by: cddbd v1.5.2PL0 Copyright (c) Steve Scherf et al.
# Submitted via: CDex 1.70beta2
#
DISCID=8509c90b
DTITLE=Chris Barber And His Band - Battersea Rain Dance
DYEAR=1969
DGENRE=Jazz
TTITLE0=Battersea Rain Dance
TTITLE1=Snag It
TTITLE2=Revival 69
TTITLE3=People Get Ready
TTITLE4=Cat Call
TTITLE5=Sleepy John
TTITLE6=Better Get Hit In Your Soul
TTITLE7=Dooji Wooji
TTITLE8=I Think It's Going To Rain Today
TTITLE9=Mercy, Mercy, Mercy
TTITLE10=Dance Dancy
EXTD=YEAR: 1969
EXTT0=
EXTT1=
EXTT2=
EXTT3=
EXTT4=
EXTT5=
EXTT6=
EXTT7=
EXTT8=
EXTT9=
EXTT10=
PLAYORDER=
